<mxfile host="app.diagrams.net" agent="Mozilla/5.0 (Macintosh; Intel Mac OS X 10_15_7) AppleWebKit/605.1.15 (KHTML, like Gecko) Version/18.0.1 Safari/605.1.15" version="26.0.8">
  <diagram name="Page-1" id="t2TYS4hbGcPKNNxTfTVg">
    <mxGraphModel dx="1026" dy="692" grid="1" gridSize="10" guides="1" tooltips="1" connect="1" arrows="1" fold="1" page="1" pageScale="1" pageWidth="827" pageHeight="1169" math="0" shadow="0">
      <root>
        <mxCell id="0" />
        <mxCell id="1" parent="0" />
        <mxCell id="Ptr-ZtB1dvW62xrCnsy5-6" value="" style="swimlane;startSize=0;" vertex="1" parent="1">
          <mxGeometry x="579" y="175" width="125" height="105" as="geometry">
            <mxRectangle x="310" y="260" width="50" height="40" as="alternateBounds" />
          </mxGeometry>
        </mxCell>
        <mxCell id="Ptr-ZtB1dvW62xrCnsy5-7" value="&lt;b&gt;Backup Controller&lt;/b&gt;" style="text;html=1;align=center;verticalAlign=middle;resizable=0;points=[];autosize=1;strokeColor=none;fillColor=none;" vertex="1" parent="Ptr-ZtB1dvW62xrCnsy5-6">
          <mxGeometry x="-5" y="30" width="130" height="30" as="geometry" />
        </mxCell>
        <mxCell id="Ptr-ZtB1dvW62xrCnsy5-13" value="Main controller updating Backup Controller" style="text;html=1;align=center;verticalAlign=middle;whiteSpace=wrap;rounded=0;" vertex="1" parent="1">
          <mxGeometry x="468" y="175" width="130" height="30" as="geometry" />
        </mxCell>
        <mxCell id="Ptr-ZtB1dvW62xrCnsy5-18" value="&lt;b&gt;Elevator X&lt;/b&gt;" style="swimlane;fontStyle=0;childLayout=stackLayout;horizontal=1;startSize=30;horizontalStack=0;resizeParent=1;resizeParentMax=0;resizeLast=0;collapsible=1;marginBottom=0;whiteSpace=wrap;html=1;" vertex="1" parent="1">
          <mxGeometry x="209" y="385" width="140" height="120" as="geometry" />
        </mxCell>
        <mxCell id="Ptr-ZtB1dvW62xrCnsy5-19" value="position" style="text;strokeColor=none;fillColor=none;align=left;verticalAlign=middle;spacingLeft=4;spacingRight=4;overflow=hidden;points=[[0,0.5],[1,0.5]];portConstraint=eastwest;rotatable=0;whiteSpace=wrap;html=1;" vertex="1" parent="Ptr-ZtB1dvW62xrCnsy5-18">
          <mxGeometry y="30" width="140" height="30" as="geometry" />
        </mxCell>
        <mxCell id="Ptr-ZtB1dvW62xrCnsy5-20" value="direction" style="text;strokeColor=none;fillColor=none;align=left;verticalAlign=middle;spacingLeft=4;spacingRight=4;overflow=hidden;points=[[0,0.5],[1,0.5]];portConstraint=eastwest;rotatable=0;whiteSpace=wrap;html=1;" vertex="1" parent="Ptr-ZtB1dvW62xrCnsy5-18">
          <mxGeometry y="60" width="140" height="30" as="geometry" />
        </mxCell>
        <mxCell id="Ptr-ZtB1dvW62xrCnsy5-21" value="local &lt;b&gt;Queue&lt;/b&gt;" style="text;strokeColor=none;fillColor=none;align=left;verticalAlign=middle;spacingLeft=4;spacingRight=4;overflow=hidden;points=[[0,0.5],[1,0.5]];portConstraint=eastwest;rotatable=0;whiteSpace=wrap;html=1;" vertex="1" parent="Ptr-ZtB1dvW62xrCnsy5-18">
          <mxGeometry y="90" width="140" height="30" as="geometry" />
        </mxCell>
        <mxCell id="Ptr-ZtB1dvW62xrCnsy5-34" value="position,&lt;div&gt;direction,&lt;/div&gt;&lt;div&gt;queue, completed hall-request ack&lt;/div&gt;" style="text;html=1;align=center;verticalAlign=middle;whiteSpace=wrap;rounded=0;" vertex="1" parent="1">
          <mxGeometry x="280" y="312.5" width="101" height="35" as="geometry" />
        </mxCell>
        <mxCell id="Ptr-ZtB1dvW62xrCnsy5-35" value="Assigned hall request: Queueelement" style="text;html=1;align=center;verticalAlign=middle;whiteSpace=wrap;rounded=0;" vertex="1" parent="1">
          <mxGeometry x="160" y="312.5" width="69" height="30" as="geometry" />
        </mxCell>
        <mxCell id="Ptr-ZtB1dvW62xrCnsy5-39" value="&lt;b&gt;Controller&lt;/b&gt;" style="swimlane;fontStyle=0;childLayout=stackLayout;horizontal=1;startSize=30;horizontalStack=0;resizeParent=1;resizeParentMax=0;resizeLast=0;collapsible=1;marginBottom=0;whiteSpace=wrap;html=1;fillColor=light-dark(#FFFF99,var(--ge-dark-color, #121212));" vertex="1" parent="1">
          <mxGeometry x="199" y="160" width="281" height="120" as="geometry" />
        </mxCell>
        <mxCell id="Ptr-ZtB1dvW62xrCnsy5-40" value="Queue containing incoming hall requests" style="text;strokeColor=none;fillColor=none;align=left;verticalAlign=middle;spacingLeft=4;spacingRight=4;overflow=hidden;points=[[0,0.5],[1,0.5]];portConstraint=eastwest;rotatable=0;whiteSpace=wrap;html=1;" vertex="1" parent="Ptr-ZtB1dvW62xrCnsy5-39">
          <mxGeometry y="30" width="281" height="30" as="geometry" />
        </mxCell>
        <mxCell id="Ptr-ZtB1dvW62xrCnsy5-41" value="Elevator positions, directions, individual queues" style="text;strokeColor=none;fillColor=none;align=left;verticalAlign=middle;spacingLeft=4;spacingRight=4;overflow=hidden;points=[[0,0.5],[1,0.5]];portConstraint=eastwest;rotatable=0;whiteSpace=wrap;html=1;" vertex="1" parent="Ptr-ZtB1dvW62xrCnsy5-39">
          <mxGeometry y="60" width="281" height="30" as="geometry" />
        </mxCell>
        <mxCell id="Ptr-ZtB1dvW62xrCnsy5-42" value="&amp;nbsp;" style="text;strokeColor=none;fillColor=none;align=left;verticalAlign=middle;spacingLeft=4;spacingRight=4;overflow=hidden;points=[[0,0.5],[1,0.5]];portConstraint=eastwest;rotatable=0;whiteSpace=wrap;html=1;" vertex="1" parent="Ptr-ZtB1dvW62xrCnsy5-39">
          <mxGeometry y="90" width="281" height="30" as="geometry" />
        </mxCell>
        <mxCell id="Ptr-ZtB1dvW62xrCnsy5-43" value="" style="endArrow=classic;html=1;rounded=0;entryX=0.25;entryY=0;entryDx=0;entryDy=0;" edge="1" parent="1" target="Ptr-ZtB1dvW62xrCnsy5-18">
          <mxGeometry width="50" height="50" relative="1" as="geometry">
            <mxPoint x="244" y="281" as="sourcePoint" />
            <mxPoint x="439" y="405" as="targetPoint" />
          </mxGeometry>
        </mxCell>
        <mxCell id="Ptr-ZtB1dvW62xrCnsy5-45" value="" style="endArrow=classic;html=1;rounded=0;entryX=0.008;entryY=0.41;entryDx=0;entryDy=0;entryPerimeter=0;" edge="1" parent="1" target="Ptr-ZtB1dvW62xrCnsy5-6">
          <mxGeometry width="50" height="50" relative="1" as="geometry">
            <mxPoint x="479" y="219" as="sourcePoint" />
            <mxPoint x="439" y="405" as="targetPoint" />
          </mxGeometry>
        </mxCell>
        <mxCell id="Ptr-ZtB1dvW62xrCnsy5-46" value="" style="endArrow=classic;html=1;rounded=0;exitX=0.5;exitY=0;exitDx=0;exitDy=0;" edge="1" parent="1" source="Ptr-ZtB1dvW62xrCnsy5-18">
          <mxGeometry width="50" height="50" relative="1" as="geometry">
            <mxPoint x="279" y="380" as="sourcePoint" />
            <mxPoint x="279" y="280" as="targetPoint" />
          </mxGeometry>
        </mxCell>
        <mxCell id="Ptr-ZtB1dvW62xrCnsy5-55" value="&lt;b&gt;Cab buttons &lt;/b&gt;for elevator X" style="rounded=1;whiteSpace=wrap;html=1;" vertex="1" parent="1">
          <mxGeometry x="210" y="585" width="100" height="40" as="geometry" />
        </mxCell>
        <mxCell id="Ptr-ZtB1dvW62xrCnsy5-57" value="" style="endArrow=none;dashed=1;html=1;dashPattern=1 3;strokeWidth=2;rounded=0;" edge="1" parent="1">
          <mxGeometry width="50" height="50" relative="1" as="geometry">
            <mxPoint x="388.5" y="440" as="sourcePoint" />
            <mxPoint x="418.5" y="440" as="targetPoint" />
          </mxGeometry>
        </mxCell>
        <mxCell id="Ptr-ZtB1dvW62xrCnsy5-59" style="edgeStyle=orthogonalEdgeStyle;rounded=0;orthogonalLoop=1;jettySize=auto;html=1;entryX=0.5;entryY=0;entryDx=0;entryDy=0;" edge="1" parent="1" target="Ptr-ZtB1dvW62xrCnsy5-55">
          <mxGeometry relative="1" as="geometry">
            <mxPoint x="259" y="505" as="sourcePoint" />
          </mxGeometry>
        </mxCell>
        <mxCell id="Ptr-ZtB1dvW62xrCnsy5-60" value="" style="endArrow=classic;html=1;rounded=0;exitX=0.25;exitY=0;exitDx=0;exitDy=0;entryX=0.179;entryY=0.967;entryDx=0;entryDy=0;entryPerimeter=0;" edge="1" parent="1" source="Ptr-ZtB1dvW62xrCnsy5-55" target="Ptr-ZtB1dvW62xrCnsy5-21">
          <mxGeometry width="50" height="50" relative="1" as="geometry">
            <mxPoint x="389" y="455" as="sourcePoint" />
            <mxPoint x="439" y="405" as="targetPoint" />
          </mxGeometry>
        </mxCell>
        <mxCell id="Ptr-ZtB1dvW62xrCnsy5-61" value="light control" style="text;html=1;align=center;verticalAlign=middle;whiteSpace=wrap;rounded=0;" vertex="1" parent="1">
          <mxGeometry x="260" y="530" width="60" height="30" as="geometry" />
        </mxCell>
        <mxCell id="Ptr-ZtB1dvW62xrCnsy5-62" value="cab request: Queelement" style="text;html=1;align=center;verticalAlign=middle;whiteSpace=wrap;rounded=0;" vertex="1" parent="1">
          <mxGeometry x="139" y="530" width="90" height="30" as="geometry" />
        </mxCell>
        <mxCell id="Ptr-ZtB1dvW62xrCnsy5-67" value="&lt;b&gt;Hall buttons&lt;/b&gt;" style="rounded=1;whiteSpace=wrap;html=1;" vertex="1" parent="1">
          <mxGeometry x="200" y="40" width="120" height="60" as="geometry" />
        </mxCell>
        <mxCell id="Ptr-ZtB1dvW62xrCnsy5-68" value="" style="endArrow=classic;html=1;rounded=0;entryX=0.575;entryY=1;entryDx=0;entryDy=0;entryPerimeter=0;" edge="1" parent="1" target="Ptr-ZtB1dvW62xrCnsy5-67">
          <mxGeometry width="50" height="50" relative="1" as="geometry">
            <mxPoint x="270" y="159" as="sourcePoint" />
            <mxPoint x="440" y="300" as="targetPoint" />
            <Array as="points" />
          </mxGeometry>
        </mxCell>
        <mxCell id="Ptr-ZtB1dvW62xrCnsy5-70" value="" style="endArrow=classic;html=1;rounded=0;entryX=0.178;entryY=-0.008;entryDx=0;entryDy=0;entryPerimeter=0;exitX=0.4;exitY=1;exitDx=0;exitDy=0;exitPerimeter=0;" edge="1" parent="1" source="Ptr-ZtB1dvW62xrCnsy5-67" target="Ptr-ZtB1dvW62xrCnsy5-39">
          <mxGeometry width="50" height="50" relative="1" as="geometry">
            <mxPoint x="242" y="102" as="sourcePoint" />
            <mxPoint x="440" y="300" as="targetPoint" />
          </mxGeometry>
        </mxCell>
        <mxCell id="Ptr-ZtB1dvW62xrCnsy5-71" value="light controls" style="text;html=1;align=center;verticalAlign=middle;resizable=0;points=[];autosize=1;strokeColor=none;fillColor=none;" vertex="1" parent="1">
          <mxGeometry x="264.5" y="118" width="90" height="30" as="geometry" />
        </mxCell>
        <mxCell id="Ptr-ZtB1dvW62xrCnsy5-73" value="hall request: Queueelement" style="text;html=1;align=center;verticalAlign=middle;whiteSpace=wrap;rounded=0;" vertex="1" parent="1">
          <mxGeometry x="170" y="118" width="70" height="30" as="geometry" />
        </mxCell>
        <mxCell id="Ptr-ZtB1dvW62xrCnsy5-74" style="edgeStyle=orthogonalEdgeStyle;rounded=0;orthogonalLoop=1;jettySize=auto;html=1;exitX=0.5;exitY=1;exitDx=0;exitDy=0;" edge="1" parent="1" source="Ptr-ZtB1dvW62xrCnsy5-6" target="Ptr-ZtB1dvW62xrCnsy5-6">
          <mxGeometry relative="1" as="geometry" />
        </mxCell>
        <mxCell id="Ptr-ZtB1dvW62xrCnsy5-81" value="&lt;b&gt;Timer&lt;/b&gt;" style="rounded=1;whiteSpace=wrap;html=1;" vertex="1" parent="1">
          <mxGeometry y="435" width="100" height="40" as="geometry" />
        </mxCell>
        <mxCell id="Ptr-ZtB1dvW62xrCnsy5-85" value="" style="endArrow=classic;startArrow=classic;html=1;rounded=0;exitX=1;exitY=0.5;exitDx=0;exitDy=0;entryX=-0.007;entryY=0.3;entryDx=0;entryDy=0;entryPerimeter=0;" edge="1" parent="1" source="Ptr-ZtB1dvW62xrCnsy5-81" target="Ptr-ZtB1dvW62xrCnsy5-20">
          <mxGeometry width="50" height="50" relative="1" as="geometry">
            <mxPoint x="320" y="340" as="sourcePoint" />
            <mxPoint x="370" y="290" as="targetPoint" />
          </mxGeometry>
        </mxCell>
        <mxCell id="Ptr-ZtB1dvW62xrCnsy5-86" value="Timer starts when door opens, obstruction" style="text;html=1;align=center;verticalAlign=middle;whiteSpace=wrap;rounded=0;" vertex="1" parent="1">
          <mxGeometry x="120" y="410" width="70" height="30" as="geometry" />
        </mxCell>
        <mxCell id="Ptr-ZtB1dvW62xrCnsy5-87" value="&lt;b&gt;Door &lt;/b&gt;for elevator X" style="rounded=1;whiteSpace=wrap;html=1;" vertex="1" parent="1">
          <mxGeometry x="349" y="580" width="109" height="45" as="geometry" />
        </mxCell>
        <mxCell id="Ptr-ZtB1dvW62xrCnsy5-92" style="edgeStyle=orthogonalEdgeStyle;rounded=0;orthogonalLoop=1;jettySize=auto;html=1;exitX=1;exitY=0.5;exitDx=0;exitDy=0;" edge="1" parent="1" source="Ptr-ZtB1dvW62xrCnsy5-21" target="Ptr-ZtB1dvW62xrCnsy5-87">
          <mxGeometry relative="1" as="geometry" />
        </mxCell>
        <mxCell id="Ptr-ZtB1dvW62xrCnsy5-93" value="" style="endArrow=classic;html=1;rounded=0;exitX=0.75;exitY=0;exitDx=0;exitDy=0;entryX=1;entryY=0.5;entryDx=0;entryDy=0;" edge="1" parent="1" source="Ptr-ZtB1dvW62xrCnsy5-87" target="Ptr-ZtB1dvW62xrCnsy5-20">
          <mxGeometry width="50" height="50" relative="1" as="geometry">
            <mxPoint x="320" y="350" as="sourcePoint" />
            <mxPoint x="370" y="300" as="targetPoint" />
            <Array as="points">
              <mxPoint x="431" y="460" />
            </Array>
          </mxGeometry>
        </mxCell>
        <mxCell id="Ptr-ZtB1dvW62xrCnsy5-94" value="Obstruction" style="text;html=1;align=center;verticalAlign=middle;resizable=0;points=[];autosize=1;strokeColor=none;fillColor=none;" vertex="1" parent="1">
          <mxGeometry x="430" y="525" width="80" height="30" as="geometry" />
        </mxCell>
        <mxCell id="Ptr-ZtB1dvW62xrCnsy5-95" value="door&lt;div&gt;control&lt;/div&gt;" style="text;html=1;align=center;verticalAlign=middle;resizable=0;points=[];autosize=1;strokeColor=none;fillColor=none;" vertex="1" parent="1">
          <mxGeometry x="349" y="520" width="60" height="40" as="geometry" />
        </mxCell>
      </root>
    </mxGraphModel>
  </diagram>
</mxfile>
